<svg width="248" height="203" viewBox="0 0 248 203" fill="none" xmlns="http://www.w3.org/2000/svg">
<path d="M37.44 164.66L40.56 173.24C40.92 174.32 41.16 175.1 41.16 175.7C41.16 176.9 40.26 177.26 37.68 177.26V179H49.14V177.26C46.86 177.26 46.08 176.66 44.76 173.06L30.12 133.82H28.14L14.82 173.9C13.86 176.72 13.2 177.26 10.86 177.26V179H20.7V177.26C18.18 177.26 17.28 176.96 17.28 175.7C17.28 175.04 17.52 174.08 17.94 172.76L20.46 164.66H37.44ZM36.6 162.38H21.18L28.32 140.24H28.56L36.6 162.38ZM86.94 140C86.94 138.92 86.1 137.84 84.66 137.84C83.34 137.84 82.38 138.98 82.38 140.24C82.38 142.58 85.08 144.14 90 144.14C94.86 144.14 97.56 142.58 97.56 140.24C97.56 138.98 96.6 137.84 95.28 137.84C93.84 137.84 93 138.92 93 140C93 140.66 93.24 141.08 93.78 141.5C92.88 142.04 91.62 142.4 90 142.4C88.38 142.4 87.06 142.04 86.16 141.5C86.94 140.96 86.94 140.36 86.94 140ZM106.56 149H95.52V150.5C98.88 150.5 98.88 150.74 98.88 153.92L80.94 171.02V153.5C80.94 150.62 81.12 150.5 84.36 150.5V149H73.32V150.5C76.74 150.5 77.04 150.62 77.04 153.5V174.44C77.04 177.32 76.74 177.5 73.32 177.5V179H84.36V177.5C81.12 177.5 80.94 177.32 80.94 174.26L98.88 157.28V174.44C98.88 177.32 98.7 177.5 95.52 177.5V179H106.56V177.5C103.08 177.5 102.78 177.32 102.78 174.44V153.44C102.78 150.62 103.08 150.5 106.56 150.5V149ZM154.56 162.92C158.82 162.08 161.34 159.32 161.34 155.84C161.34 149 151.8 149 149.34 149H137.04V150.5C140.64 150.5 140.76 150.62 140.76 153.44V174.56C140.76 177.32 140.64 177.44 137.04 177.44V179H151.5C155.82 179 158.88 178.04 160.8 176.36C162.24 175.04 163.32 173 163.32 170.42C163.32 166.22 159.36 163.7 154.56 163.04V162.92ZM144.66 162.38V152.18C144.66 151.28 144.78 150.98 145.68 150.98H149.76C152.82 150.98 157.38 151.58 157.38 156.26C157.38 160.82 152.28 162.38 148.62 162.38H144.66ZM146.1 177.02C144.84 177.02 144.66 176.78 144.66 175.22V164.18H149.58C156.96 164.18 159.24 167.66 159.24 170.36C159.24 173.78 157.32 177.02 151.2 177.02H146.1ZM221.4 157.52C221.4 152 218.88 148.22 210.84 148.22C203.4 148.22 199.14 152.18 199.14 154.88C199.14 155.78 199.62 156.56 200.7 156.56C201.9 156.56 202.5 155.96 202.8 155.12C203.58 153.62 204.24 152.6 205.2 151.88C206.7 150.8 208.26 150.14 210.54 150.14C215.4 150.14 217.5 152.54 217.5 157.04V159.8L213.18 160.7C198.84 163.52 197.64 168.56 197.64 172.04C197.64 177.02 202.08 179.78 207.24 179.78C211.92 179.78 214.98 178.22 217.68 175.76H217.86C218.4 178.1 219.78 179.36 222.12 179.36C223.8 179.36 224.82 179.06 225.9 178.52L225.48 177.14C224.88 177.44 224.28 177.62 223.56 177.62C222.06 177.62 221.4 176.06 221.4 172.94V157.52ZM217.5 173.6C215.34 175.64 212.58 177.5 208.74 177.5C204.42 177.5 201.78 175.46 201.78 171.56C201.78 167.06 206.1 164.3 217.5 161.78V173.6Z" fill="#5C3F2A"/>
<ellipse cx="127.123" cy="126.305" rx="1.34773" ry="1.23595" fill="#4B2F15"/>
<ellipse cx="126.449" cy="129.395" rx="0.673863" ry="0.617975" fill="#4B2F15"/>
<path d="M120.904 116.415C123.53 118.982 126.871 120.714 131.192 121.509C138.095 122.779 147.425 121.64 160.219 117.873L160.251 117.864L160.281 117.852C172.081 113.172 181.89 103.738 190.907 93.9602C192.903 91.796 194.859 89.6166 196.79 87.4658C203.626 79.8494 210.141 72.5908 216.969 67.6312L218.269 66.6864L216.619 66.532C205.616 65.5026 191.3 64.2597 176.819 64.5503C175.654 64.5737 174.488 64.607 173.321 64.6512C173.261 65.0698 173.183 65.4852 173.088 65.8972C174.341 65.8478 175.595 65.8111 176.849 65.786C190.543 65.5112 204.103 66.6165 214.864 67.6111C208.369 72.6149 202.121 79.5781 195.687 86.7484C193.771 88.8833 191.838 91.0368 189.878 93.1621C180.869 102.931 171.245 112.147 159.776 116.706C147.057 120.448 138.008 121.502 131.457 120.297C127.816 119.627 124.924 118.255 122.588 116.218C122.108 116.347 121.593 116.417 121.058 116.417C121.006 116.417 120.955 116.417 120.904 116.415Z" fill="#4B2F15"/>
<path d="M114.269 113.81C114.529 114.006 114.792 114.197 115.059 114.385C115.102 114.415 115.144 114.445 115.187 114.474C115.062 114.314 114.993 114.135 114.993 113.945C114.742 113.945 114.499 113.898 114.269 113.81Z" fill="#4B2F15"/>
<path d="M118.27 114.914C117.925 115.081 117.489 115.181 117.014 115.181C116.635 115.181 116.279 115.117 115.976 115.006C121.196 118.404 126.716 119.629 133.183 117.967C139.962 116.224 147.712 111.325 157.247 102.642L157.27 102.621L157.291 102.598C165.488 93.5149 169.558 81.0253 172.752 68.5589C173.459 65.7995 174.123 63.0433 174.778 60.3232C177.099 50.6908 179.31 41.5111 182.939 34.2492L183.63 32.8658L182.083 33.4155C171.769 37.0792 158.399 41.932 145.64 48.2198C145.426 48.3254 145.212 48.4313 144.998 48.5377C145.142 48.9341 145.28 49.3344 145.412 49.7383C145.7 49.5943 145.989 49.451 146.278 49.3085C158.343 43.3624 170.973 38.7014 181.054 35.1073C177.744 42.2698 175.623 51.0757 173.44 60.1433C172.79 62.8432 172.134 65.5663 171.44 68.2762C168.249 80.7311 164.236 92.9499 156.274 101.787C146.794 110.416 139.253 115.123 132.819 116.777C127.416 118.165 122.745 117.413 118.27 114.914Z" fill="#4B2F15"/>
<path d="M113.113 112.895C112.498 112.383 111.907 111.846 111.343 111.286C111.748 111.53 112.165 111.744 112.593 111.928C112.728 112.289 112.904 112.615 113.113 112.895Z" fill="#4B2F15"/>
<path d="M104.516 93.0478L104.485 93.03C104.478 93.1379 104.471 93.2455 104.465 93.3529C104.481 93.2509 104.498 93.1491 104.516 93.0478Z" fill="#4B2F15"/>
<path d="M123.823 116.331C123.356 116.388 122.883 116.417 122.406 116.417C122.178 116.417 121.951 116.411 121.726 116.397C121.944 116.565 122.168 116.73 122.397 116.894C127.957 120.855 136.861 123.654 150.144 125.518L150.176 125.523L150.209 125.525C163.046 126.164 176.415 121.735 189.242 116.675C192.082 115.555 194.893 114.405 197.667 113.27C207.49 109.251 216.852 105.421 225.376 103.776L227 103.463L225.598 102.649C217.388 97.8852 206.97 91.9275 195.679 86.7092C195.389 87.0331 195.079 87.3515 194.75 87.6642C205.48 92.6021 215.443 98.2329 223.503 102.897C215.256 104.718 206.275 108.392 197.028 112.177C194.275 113.303 191.498 114.44 188.71 115.54C175.894 120.595 162.797 124.906 150.315 124.292C137.6 122.505 129.144 119.88 123.823 116.331Z" fill="#4B2F15"/>
<path d="M128.47 116.948C125.817 119.541 122.44 121.291 118.074 122.094C111.099 123.377 101.671 122.226 88.7435 118.421L88.7118 118.412L88.6813 118.4C76.7582 113.671 66.8465 104.141 57.7346 94.2625C55.7177 92.0761 53.7412 89.8743 51.7906 87.7014C44.8831 80.0068 38.3002 72.6738 31.4006 67.6633L30.0863 66.7088L31.7542 66.5528C42.8723 65.5128 57.3378 64.2572 71.9699 64.5507C73.1472 64.5744 74.326 64.608 75.5046 64.6526C75.5654 65.0756 75.6441 65.4953 75.7401 65.9115C74.4742 65.8616 73.2069 65.8245 71.9401 65.7991C58.103 65.5215 44.4004 66.6381 33.5268 67.643C40.0897 72.6981 46.4037 79.7328 52.9053 86.9767C54.8411 89.1334 56.7938 91.3091 58.7744 93.4562C67.8779 103.325 77.6026 112.636 89.1915 117.242C102.043 121.022 111.187 122.087 117.807 120.87C121.486 120.193 124.408 118.807 126.768 116.749C127.253 116.879 127.773 116.95 128.315 116.95C128.367 116.95 128.419 116.949 128.47 116.948Z" fill="#4B2F15"/>
<path d="M125.028 117.183C125.495 117.24 125.967 117.268 126.444 117.268C126.671 117.268 126.897 117.262 127.123 117.249C126.905 117.414 126.681 117.577 126.452 117.738C120.9 121.642 112.009 124.401 98.7453 126.238L98.7128 126.242L98.68 126.244C85.8614 126.875 72.512 122.51 59.703 117.522C56.8678 116.419 54.0609 115.285 51.2908 114.167C41.4813 110.206 32.133 106.431 23.6214 104.811L22 104.502L23.4001 103.7C31.5981 99.0046 42.0006 93.1332 53.2759 87.9904C53.5653 88.3096 53.8748 88.6234 54.2037 88.9315C43.4888 93.798 33.54 99.3473 25.492 103.944C33.7273 105.738 42.6945 109.36 51.9282 113.089C54.6775 114.199 57.4505 115.319 60.2348 116.404C73.032 121.386 86.1104 125.634 98.5743 125.029C111.271 123.268 119.715 120.681 125.028 117.183Z" fill="#4B2F15"/>
<path d="M125.312 135.196L118.333 123.494L125.312 117.093L132.291 123.494L125.312 135.196Z" stroke="#4B2F15"/>
<path d="M132.038 115.34C131.562 115.34 131.123 115.239 130.777 115.071C126.282 117.589 121.59 118.348 116.163 116.948C109.701 115.281 102.127 110.537 92.6046 101.839C84.6071 92.9327 80.5768 80.617 77.3713 68.0635C76.6739 65.3322 76.0152 62.5875 75.3623 59.8662C73.1691 50.7267 71.0394 41.8511 67.7147 34.6319C77.84 38.2544 90.5259 42.9523 102.645 48.9456C102.935 49.0892 103.225 49.2336 103.515 49.3787C103.647 48.9717 103.786 48.5682 103.93 48.1686C103.716 48.0614 103.501 47.9546 103.286 47.8482C90.4704 41.5106 77.0404 36.6194 66.6813 32.9267L65.1272 32.3727L65.8215 33.767C69.4663 41.0864 71.6875 50.3388 74.0182 60.0475C74.6764 62.7891 75.3433 65.5673 76.0535 68.3484C79.262 80.9136 83.3497 93.5022 91.5827 102.657L91.6038 102.68L91.6272 102.702C101.204 111.453 108.989 116.391 115.798 118.148C122.294 119.823 127.838 118.588 133.081 115.163C132.777 115.276 132.42 115.34 132.038 115.34Z" fill="#4B2F15"/>
<path d="M134.002 114.538C134.27 114.348 134.535 114.155 134.796 113.958C134.565 114.047 134.321 114.094 134.069 114.094C134.069 114.285 133.999 114.466 133.874 114.628L134.002 114.538Z" fill="#4B2F15"/>
<path d="M144.623 93.0133L144.593 93.0314C144.61 93.1335 144.627 93.236 144.643 93.3388C144.637 93.2306 144.631 93.1221 144.623 93.0133Z" fill="#4B2F15"/>
<path fill-rule="evenodd" clip-rule="evenodd" d="M125.721 1.23251L125.151 0L124.498 1.19749C119.107 11.0861 112.185 23.9925 106.612 37.8056C101.041 51.6124 96.7988 66.369 96.7988 79.9567V79.9848L96.8016 80.0127C98.156 93.6753 101.925 102.924 107.026 108.77C112.146 114.636 118.574 117.035 125.101 117.035C131.632 117.035 137.401 114.786 141.934 108.975C146.433 103.208 149.688 93.9675 151.378 80.025L151.382 79.991V79.9567C151.382 70.0972 149.237 59.7027 146.06 49.4955L145.873 49.5579L146.016 49.3551C145.984 49.252 145.952 49.1488 145.919 49.0456L145.383 48.867H145.863C144.713 45.2239 143.435 41.6065 142.078 38.0479C137.951 27.2199 133.087 16.8989 128.905 8.02719C127.786 5.65244 126.716 3.3815 125.721 1.23251ZM108.079 107.997C103.206 102.414 99.49 93.4415 98.1466 79.9287C98.1524 66.5615 102.332 51.975 107.876 38.2345C113.2 25.0384 119.766 12.6629 125.052 2.94642C125.887 4.73792 126.767 6.60508 127.678 8.53873C131.858 17.4071 136.697 27.6742 140.806 38.4557C146.015 52.1206 150.027 66.5533 150.034 79.9226C148.353 93.7696 145.134 102.749 140.838 108.256C136.573 113.723 131.224 115.799 125.101 115.799C118.974 115.799 112.936 113.564 108.079 107.997Z" fill="#4B2F15"/>
</svg>
