<svg width="71" height="60" viewBox="0 0 71 60" fill="none" xmlns="http://www.w3.org/2000/svg">
<path d="M30.2231 35.3984C31.7886 36.2579 33.5546 36.5022 35.5726 35.7799C37.616 35.0485 39.8752 33.3416 42.4739 30.4037L42.4949 30.38L42.5128 30.3543C44.7016 27.2128 45.4222 24.0593 45.8101 20.9588C45.9276 20.0202 46.0144 19.0957 46.1004 18.1799C46.3016 16.0382 46.4983 13.944 47.0713 11.8298L47.3812 10.6866L46.2321 11.2188C45.5246 11.5464 44.7992 11.8716 44.0631 12.2016C41.8042 13.2144 39.4439 14.2726 37.184 15.5872C37.2774 15.9591 37.3601 16.3385 37.4316 16.7248C39.7225 15.3558 42.165 14.2583 44.5634 13.1807C44.9284 13.0166 45.2924 12.8531 45.6547 12.6891C45.2587 14.5236 45.0852 16.3686 44.9149 18.1785C44.8306 19.0748 44.7471 19.9625 44.6378 20.8361C44.2598 23.8569 43.5717 26.8149 41.5354 29.749C38.9938 32.6177 36.8984 34.1467 35.1425 34.7752C33.8951 35.2217 32.7997 35.2212 31.7889 34.8925C31.347 35.1402 30.8119 35.3176 30.2231 35.3984Z" fill="#EEE7DF"/>
<path d="M45.196 21.5076C45.2198 21.1818 45.2318 20.8531 45.2318 20.5219C45.2318 20.49 45.2317 20.4582 45.2315 20.4264C48.3455 20.2755 51.389 20.5376 54.2826 20.7868C55.0988 20.8571 55.903 20.9263 56.6936 20.985L58.0751 21.0876L57.0366 21.9269C54.5934 23.9015 52.9739 25.9449 51.3971 27.9343C51.0424 28.3819 50.6898 28.8267 50.3305 29.2674C48.3787 31.6615 46.2576 33.8872 42.5879 35.5238L42.5579 35.5371L42.5265 35.5473C38.632 36.8107 35.7304 37.1867 33.5702 36.834C32.1967 36.6098 31.1412 36.0939 30.3384 35.3596C30.8714 35.308 31.397 35.2341 31.9138 35.1388C32.4304 35.4372 33.0445 35.6522 33.7775 35.7719C35.6338 36.0749 38.2942 35.7724 42.1004 34.5407C45.5032 33.0163 47.4823 30.9558 49.3845 28.6225C49.728 28.2012 50.07 27.7694 50.4181 27.3299C51.7858 25.6029 53.2481 23.7565 55.2695 21.9552C54.8973 21.9243 54.5242 21.8925 54.15 21.8606C51.2146 21.6101 48.2195 21.3546 45.196 21.5076Z" fill="#EEE7DF"/>
<path d="M30.4399 34.9662C30.8798 35.5373 31.5018 36.0482 32.3346 36.4854C34.1492 37.4379 36.9586 38.0406 41.0703 38.2456L41.0993 38.2471L41.1282 38.2459C45.2004 38.0833 48.1812 36.8397 51.0446 35.4777C51.4102 35.3038 51.7732 35.1284 52.1359 34.9531C54.6226 33.7515 57.0977 32.5555 60.2948 31.9022L62 31.5537L60.4128 30.8856C59.7148 30.5918 59.0093 30.2855 58.2937 29.9748C56.0526 29.0018 53.7122 27.9856 51.1925 27.1766C51.0465 27.511 50.8797 27.8389 50.6931 28.1598C53.1676 28.9484 55.4912 29.9555 57.7703 30.9432C57.993 31.0398 58.2153 31.1361 58.4373 31.2321C55.8185 31.9508 53.6489 33.0003 51.5747 34.0036L51.5743 34.0037C51.214 34.178 50.8565 34.3509 50.5001 34.5205C47.6876 35.8582 44.9003 37.0101 41.1055 37.1668C37.0699 36.9634 34.4917 36.3736 32.9221 35.5496C32.7634 35.4663 32.615 35.3807 32.4764 35.2927C31.7823 35.2131 31.1025 35.1036 30.4399 34.9662Z" fill="#EEE7DF"/>
<path d="M31.0723 35.3594C29.565 36.2194 27.8648 36.4639 25.9219 35.7411C23.9545 35.0092 21.7794 33.3012 19.2774 30.3614L19.2573 30.3377L19.24 30.312C17.1327 27.1684 16.4389 24.0129 16.0654 20.9104C15.9523 19.9712 15.8687 19.0461 15.7859 18.1297C15.5922 15.9866 15.4028 13.8911 14.8511 11.7755L14.5528 10.6316L15.6591 11.164C16.3403 11.4919 17.0386 11.8173 17.7473 12.1476C19.9222 13.161 22.1947 14.2199 24.3704 15.5354C24.2806 15.9074 24.201 16.2871 24.1321 16.6736C21.9264 15.3038 19.5748 14.2056 17.2657 13.1272C16.9143 12.9631 16.5638 12.7994 16.215 12.6353C16.5963 14.4711 16.7633 16.3172 16.9272 18.1283C17.0084 19.0252 17.0888 19.9135 17.1941 20.7876C17.558 23.8103 18.2205 26.7703 20.181 29.7063C22.628 32.5768 24.6454 34.1068 26.336 34.7357C27.537 35.1825 28.5916 35.182 29.5648 34.8531C29.9902 35.101 30.5054 35.2785 31.0723 35.3594Z" fill="#EEE7DF"/>
<path d="M16.7455 21.4654C16.7225 21.1403 16.7109 20.8123 16.7109 20.4818C16.7109 20.45 16.711 20.4182 16.7112 20.3864C13.7084 20.2358 10.7736 20.4974 7.98347 20.7461C7.19643 20.8162 6.4209 20.8854 5.6586 20.9439L4.32641 21.0462L5.32787 21.8839C7.6838 23.8545 9.24542 25.8936 10.7659 27.8789C11.1079 28.3256 11.4479 28.7695 11.7943 29.2093C13.6764 31.5984 15.7218 33.8196 19.2604 35.4528L19.2893 35.4661L19.3195 35.4763C23.0749 36.7371 25.8728 37.1123 27.9559 36.7604C29.2804 36.5366 30.2982 36.0218 31.0723 35.289C30.5583 35.2375 30.0515 35.1637 29.5532 35.0686C29.055 35.3664 28.4628 35.581 27.756 35.7004C25.966 36.0028 23.4007 35.7009 19.7304 34.4718C16.4492 32.9505 14.5408 30.8942 12.7066 28.5658C12.3753 28.1453 12.0456 27.7144 11.7099 27.2758C10.391 25.5523 8.98095 23.7097 7.0318 21.9121C7.39066 21.8813 7.75052 21.8495 8.11131 21.8177C10.9418 21.5678 13.83 21.3128 16.7455 21.4654Z" fill="#EEE7DF"/>
<path d="M30.6792 35.0204C30.2516 35.5956 29.647 36.1101 28.8374 36.5504C27.0735 37.5097 24.3425 38.1167 20.3456 38.3231L20.3175 38.3246L20.2893 38.3234C16.3308 38.1597 13.4332 36.9072 10.6497 35.5355C10.2944 35.3604 9.94151 35.1837 9.58888 35.0072C7.17161 33.7971 4.7656 32.5925 1.65779 31.9346L0.000125885 31.5836L1.54308 30.9108C2.2216 30.6149 2.90738 30.3064 3.60298 29.9935C5.78156 29.0136 8.05661 27.9902 10.506 27.1754C10.6479 27.5121 10.8101 27.8424 10.9915 28.1656C8.58601 28.9598 6.32725 29.974 4.11183 30.9688C3.89531 31.066 3.6792 31.1631 3.4634 31.2597C6.00912 31.9836 8.11814 33.0405 10.1344 34.0509L10.1348 34.0511C10.4851 34.2266 10.8325 34.4008 11.179 34.5715C13.913 35.9188 16.6225 37.0788 20.3114 37.2366C24.2343 37.0318 26.7405 36.4378 28.2663 35.608C28.4206 35.5241 28.5649 35.4378 28.6995 35.3492C29.3743 35.2691 30.0351 35.1588 30.6792 35.0204Z" fill="#EEE7DF"/>
<path fill-rule="evenodd" clip-rule="evenodd" d="M31.9144 35.249C31.6061 35.3754 31.2521 35.4474 30.8757 35.4474C30.4316 35.4474 30.0188 35.3473 29.6754 35.1756L27.1392 37.4946L30.7547 43L34.3703 37.4946L31.9144 35.249ZM30.7547 40.9042L28.6252 37.6617L30.7547 35.7145L32.8842 37.6617L30.7547 40.9042Z" fill="#EEE7DF"/>
<ellipse cx="30.6788" cy="37.4254" rx="0.589982" ry="0.539474" fill="#EEE7DF"/>
<ellipse cx="30.679" cy="39.0439" rx="0.393322" ry="0.359648" fill="#EEE7DF"/>
<path fill-rule="evenodd" clip-rule="evenodd" d="M31.8124 1.78932L31.3132 0.713379L30.7416 1.75876C29.1678 4.63678 27.1391 8.40779 25.5045 12.4474C23.872 16.4815 22.6162 20.8219 22.6162 24.8377V24.8622L22.6186 24.8866C23.0178 28.9013 24.1326 31.6704 25.6873 33.4467C27.2577 35.241 29.2479 35.9869 31.2693 35.9869C33.2941 35.9869 35.1005 35.2821 36.5018 33.491C37.8728 31.7385 38.8331 28.9766 39.3288 24.8973L39.3324 24.8676V24.8377C39.3324 20.8254 38.1276 16.5325 36.5952 12.524C35.3856 9.35965 33.9584 6.34062 32.7377 3.75813C32.4119 3.06893 32.1008 2.41081 31.8124 1.78932ZM26.6085 32.7726C25.2544 31.2254 24.1857 28.697 23.7962 24.8133C23.8013 20.9899 25.0021 16.798 26.6111 12.8218C28.033 9.30803 29.761 5.99255 31.2287 3.28453C31.3703 3.58505 31.5152 3.89176 31.6629 4.20423L31.6631 4.20467C32.8825 6.7843 34.2872 9.75625 35.4814 12.88C36.9933 16.8351 38.1464 20.9827 38.1524 24.8079C37.6638 28.8036 36.7356 31.3377 35.5421 32.8632C34.3758 34.3539 32.9373 34.9079 31.2693 34.9079C31.1811 34.9079 31.0929 34.9062 31.0049 34.9028L30.8899 35.008L30.7596 34.8888C29.2653 34.7755 27.8132 34.149 26.6085 32.7726Z" fill="#EEE7DF"/>
<path d="M9.984 47.176L10.816 49.464C10.912 49.752 10.976 49.96 10.976 50.12C10.976 50.44 10.736 50.536 10.048 50.536V51H13.104V50.536C12.496 50.536 12.288 50.376 11.936 49.416L8.032 38.952H7.504L3.952 49.64C3.696 50.392 3.52 50.536 2.896 50.536V51H5.52V50.536C4.848 50.536 4.608 50.456 4.608 50.12C4.608 49.944 4.672 49.688 4.784 49.336L5.456 47.176H9.984ZM9.76 46.568H5.648L7.552 40.664H7.616L9.76 46.568ZM23.184 40.6C23.184 40.312 22.96 40.024 22.576 40.024C22.224 40.024 21.968 40.328 21.968 40.664C21.968 41.288 22.688 41.704 24 41.704C25.296 41.704 26.016 41.288 26.016 40.664C26.016 40.328 25.76 40.024 25.408 40.024C25.024 40.024 24.8 40.312 24.8 40.6C24.8 40.776 24.864 40.888 25.008 41C24.768 41.144 24.432 41.24 24 41.24C23.568 41.24 23.216 41.144 22.976 41C23.184 40.856 23.184 40.696 23.184 40.6ZM28.416 43H25.472V43.4C26.368 43.4 26.368 43.464 26.368 44.312L21.584 48.872V44.2C21.584 43.432 21.632 43.4 22.496 43.4V43H19.552V43.4C20.464 43.4 20.544 43.432 20.544 44.2V49.784C20.544 50.552 20.464 50.6 19.552 50.6V51H22.496V50.6C21.632 50.6 21.584 50.552 21.584 49.736L26.368 45.208V49.784C26.368 50.552 26.32 50.6 25.472 50.6V51H28.416V50.6C27.488 50.6 27.408 50.552 27.408 49.784V44.184C27.408 43.432 27.488 43.4 28.416 43.4V43ZM41.216 46.712C42.352 46.488 43.024 45.752 43.024 44.824C43.024 43 40.48 43 39.824 43H36.544V43.4C37.504 43.4 37.536 43.432 37.536 44.184V49.816C37.536 50.552 37.504 50.584 36.544 50.584V51H40.4C41.552 51 42.368 50.744 42.88 50.296C43.264 49.944 43.552 49.4 43.552 48.712C43.552 47.592 42.496 46.92 41.216 46.744V46.712ZM38.576 46.568V43.848C38.576 43.608 38.608 43.528 38.848 43.528H39.936C40.752 43.528 41.968 43.688 41.968 44.936C41.968 46.152 40.608 46.568 39.632 46.568H38.576ZM38.96 50.472C38.624 50.472 38.576 50.408 38.576 49.992V47.048H39.888C41.856 47.048 42.464 47.976 42.464 48.696C42.464 49.608 41.952 50.472 40.32 50.472H38.96ZM59.04 45.272C59.04 43.8 58.368 42.792 56.224 42.792C54.24 42.792 53.104 43.848 53.104 44.568C53.104 44.808 53.232 45.016 53.52 45.016C53.84 45.016 54 44.856 54.08 44.632C54.288 44.232 54.464 43.96 54.72 43.768C55.12 43.48 55.536 43.304 56.144 43.304C57.44 43.304 58 43.944 58 45.144V45.88L56.848 46.12C53.024 46.872 52.704 48.216 52.704 49.144C52.704 50.472 53.888 51.208 55.264 51.208C56.512 51.208 57.328 50.792 58.048 50.136H58.096C58.24 50.76 58.608 51.096 59.232 51.096C59.68 51.096 59.952 51.016 60.24 50.872L60.128 50.504C59.968 50.584 59.808 50.632 59.616 50.632C59.216 50.632 59.04 50.216 59.04 49.384V45.272ZM58 49.56C57.424 50.104 56.688 50.6 55.664 50.6C54.512 50.6 53.808 50.056 53.808 49.016C53.808 47.816 54.96 47.08 58 46.408V49.56Z" fill="#EEE7DF"/>
</svg>
