<svg width="124" height="83" viewBox="0 0 124 83" fill="none" xmlns="http://www.w3.org/2000/svg">
<path d="M60.4463 68.1677C63.5773 69.8448 67.1093 70.3214 71.1452 68.912C75.2321 67.4849 79.7504 64.1543 84.9478 58.422L84.9897 58.3757L85.0255 58.3256C89.4031 52.1957 90.8443 46.0426 91.6203 39.9927C91.8551 38.1614 92.0288 36.3575 92.2008 34.5705C92.6031 30.3916 92.9965 26.3055 94.1427 22.1802L94.7624 19.9496L92.4643 20.9879C91.0491 21.6272 89.5985 22.2617 88.1263 22.9056C83.6084 24.8818 78.8877 26.9466 74.3681 29.5117C74.5547 30.2372 74.7201 30.9776 74.8632 31.7313C79.4451 29.0602 84.33 26.9188 89.1268 24.8159C89.8568 24.4959 90.5848 24.1768 91.3093 23.8568C90.5174 27.4364 90.1704 31.0363 89.8299 34.5678C89.6612 36.3167 89.4942 38.0488 89.2756 39.7534C88.5197 45.6476 87.1433 51.4194 83.0708 57.1444C77.9876 62.7419 73.7968 65.7253 70.285 66.9516C67.7902 67.8228 65.5993 67.8218 63.5778 67.1804C62.6941 67.6639 61.6238 68.01 60.4463 68.1677Z" fill="#EBA68B"/>
<path d="M90.3924 41.0636C90.44 40.4279 90.4642 39.7866 90.4642 39.1404C90.4642 39.0782 90.4639 39.0161 90.4635 38.954C96.6915 38.6595 102.779 39.1709 108.566 39.6572C110.198 39.7943 111.807 39.9295 113.388 40.044L116.151 40.2441L114.074 41.8819C109.187 45.7348 105.948 49.7218 102.795 53.6036C102.085 54.4769 101.38 55.3449 100.662 56.2048C96.758 60.8761 92.5157 65.219 85.1763 68.4123L85.1163 68.4384L85.0535 68.4583C77.2645 70.9234 71.4614 71.657 67.1408 70.9689C64.3938 70.5315 62.2828 69.5248 60.6772 68.0921C61.7433 67.9914 62.7944 67.847 63.828 67.6611C64.8613 68.2435 66.0895 68.663 67.5556 68.8965C71.2682 69.4877 76.5888 68.8974 84.2014 66.4941C91.0069 63.5197 94.965 59.4993 98.7695 54.9465C99.4565 54.1244 100.14 53.2819 100.837 52.4243C103.572 49.0546 106.497 45.4518 110.539 41.9371C109.795 41.8768 109.049 41.8147 108.301 41.7524C102.43 41.2638 96.4394 40.7652 90.3924 41.0636Z" fill="#EBA68B"/>
<path d="M60.8799 67.3242C61.7596 68.4387 63.0036 69.4354 64.6693 70.2885C68.2985 72.1471 73.9172 73.3232 82.1407 73.7231L82.1985 73.7259L82.2564 73.7237C90.4008 73.4065 96.3624 70.9798 102.089 68.3223C102.82 67.983 103.546 67.6408 104.272 67.2987C109.245 64.9541 114.195 62.6204 120.59 61.3457L124 60.6657L120.826 59.3622C119.43 58.7889 118.019 58.1913 116.587 57.585C112.105 55.6864 107.424 53.7036 102.385 52.1251C102.093 52.7775 101.759 53.4174 101.386 54.0434C106.335 55.5822 110.982 57.5472 115.541 59.4745C115.986 59.6629 116.431 59.8509 116.875 60.0381C111.637 61.4406 107.298 63.4883 103.149 65.446L103.149 65.4463C102.428 65.7864 101.713 66.1238 101 66.4546C95.3752 69.0648 89.8006 71.3123 82.211 71.6181C74.1398 71.2213 68.9835 70.0704 65.8442 68.4627C65.5268 68.3001 65.23 68.133 64.9529 67.9614C63.5646 67.8061 62.205 67.5924 60.8799 67.3242Z" fill="#EBA68B"/>
<path d="M62.145 68.0914C59.1306 69.7697 55.73 70.2466 51.8443 68.8363C47.9095 67.4082 43.5593 64.0755 38.5554 58.3394L38.515 58.2932L38.4805 58.243C34.2659 52.1091 32.8783 45.952 32.1312 39.8983C31.9051 38.0658 31.7379 36.2607 31.5723 34.4726C31.1849 30.2909 30.8062 26.2022 29.7027 22.0742L29.106 19.8422L31.3186 20.8811C32.6811 21.5209 34.0778 22.1558 35.4952 22.8001C39.8449 24.7776 44.3899 26.8437 48.7413 29.4105C48.5616 30.1364 48.4024 30.8773 48.2647 31.6315C43.8533 28.9587 39.1502 26.8158 34.5319 24.7117C33.829 24.3914 33.1282 24.0721 32.4306 23.7519C33.193 27.3338 33.5272 30.9361 33.855 34.4698C34.0173 36.2199 34.1781 37.9531 34.3886 39.6588C35.1164 45.5568 36.4415 51.3324 40.3625 57.0611C45.2565 62.6621 49.2914 65.6475 52.6725 66.8746C55.0744 67.7463 57.1838 67.7454 59.13 67.1036C59.9809 67.5873 61.0113 67.9337 62.145 68.0914Z" fill="#EBA68B"/>
<path d="M33.4914 40.9813C33.4455 40.3468 33.4222 39.7068 33.4222 39.062C33.4222 38.9999 33.4225 38.9379 33.4229 38.8759C27.4173 38.582 21.5477 39.0924 15.9674 39.5777C14.3934 39.7146 12.8423 39.8494 11.3177 39.9637L8.6533 40.1634L10.6562 41.7978C15.3681 45.6428 18.4913 49.6216 21.5322 53.4955C22.2163 54.3669 22.8963 55.2331 23.5892 56.0913C27.3533 60.753 31.444 65.0869 38.5212 68.2737L38.579 68.2998L38.6396 68.3196C46.1503 70.7796 51.7462 71.5118 55.9124 70.8251C58.5612 70.3885 60.5968 69.3839 62.145 67.9541C61.117 67.8536 60.1035 67.7096 59.1068 67.524C58.1104 68.1052 56.9261 68.5238 55.5124 68.7569C51.9325 69.3469 46.8019 68.7578 39.4613 66.3595C32.8989 63.3912 29.0821 59.379 25.4136 54.8356C24.7512 54.0152 24.0917 53.1744 23.4204 52.3186C20.7826 48.9558 17.9624 45.3604 14.0641 41.8529C14.7818 41.7927 15.5015 41.7307 16.2231 41.6686C21.8841 41.181 27.6604 40.6834 33.4914 40.9813Z" fill="#EBA68B"/>
<path d="M61.3579 67.4299C60.5028 68.5523 59.2935 69.5562 57.6743 70.4153C54.1464 72.2871 48.6845 73.4716 40.6906 73.8744L40.6344 73.8772L40.5782 73.8749C32.6611 73.5554 26.8659 71.1115 21.2989 68.4351C20.5883 68.0935 19.8825 67.7488 19.1773 67.4043C14.3427 65.043 9.53071 62.6927 3.3151 61.4089L-0.000236511 60.7241L3.08567 59.4113C4.44272 58.834 5.81428 58.2321 7.20547 57.6215C11.5626 55.7094 16.1127 53.7125 21.0115 52.1228C21.2953 52.7798 21.6196 53.4242 21.9824 54.0548C17.1715 55.6044 12.654 57.5834 8.22318 59.5245C7.79013 59.7142 7.35791 59.9035 6.92632 60.0921C12.0177 61.5045 16.2358 63.5667 20.2684 65.5383L20.2691 65.5387C20.9696 65.8812 21.6646 66.221 22.3576 66.5541C27.8255 69.1829 33.2446 71.4464 40.6222 71.7544C48.4681 71.3547 53.4806 70.1957 56.5322 68.5765C56.8407 68.4128 57.1292 68.2445 57.3986 68.0717C58.7482 67.9152 60.0697 67.7 61.3579 67.4299Z" fill="#EBA68B"/>
<path fill-rule="evenodd" clip-rule="evenodd" d="M63.8287 67.876C63.2122 68.1228 62.5043 68.2631 61.7514 68.2631C60.8633 68.2631 60.0376 68.0678 59.3507 67.7328L54.2783 72.2578L61.5095 83L68.7406 72.2578L63.8287 67.876ZM61.5095 78.9106L57.2504 72.5837L61.5094 68.7843L65.7685 72.5837L61.5095 78.9106Z" fill="#EBA68B"/>
<ellipse cx="61.3582" cy="72.1228" rx="1.17996" ry="1.05263" fill="#EBA68B"/>
<ellipse cx="61.3579" cy="75.2807" rx="0.786644" ry="0.701752" fill="#EBA68B"/>
<path fill-rule="evenodd" clip-rule="evenodd" d="M63.6243 2.58891L62.6259 0.489502L61.4827 2.52926C58.3352 8.14491 54.2777 15.503 51.0084 23.3851C47.7435 31.2566 45.2319 39.7256 45.2319 47.5614V47.6092L45.2368 47.6567C46.0351 55.4904 48.2647 60.8935 51.3741 64.3595C54.5149 67.8605 58.4953 69.3158 62.5381 69.3158C66.5878 69.3158 70.2004 67.9407 73.003 64.4458C75.7451 61.0263 77.6657 55.6373 78.657 47.6777L78.6643 47.6197V47.5614C78.6643 39.7325 76.2547 31.3561 73.19 23.5346C70.7707 17.3603 67.9164 11.4695 65.4748 6.43048C64.8232 5.08569 64.201 3.80156 63.6243 2.58891ZM53.2166 63.044C50.5083 60.0251 48.371 55.0917 47.5919 47.5138C47.6021 40.0534 50.0037 31.8741 53.2217 24.1157C56.0655 17.2596 59.5214 10.7903 62.4569 5.50637C62.74 6.09277 63.03 6.69122 63.3254 7.30091L63.3258 7.30179C65.7644 12.3352 68.5739 18.1341 70.9622 24.2293C73.9861 31.9465 76.2924 40.0394 76.3043 47.5033C75.3271 55.2996 73.4706 60.2443 71.0836 63.2209C68.7512 66.1295 65.874 67.2105 62.5381 67.2105C62.3617 67.2105 62.1854 67.2073 62.0093 67.2006L61.7794 67.4057L61.5188 67.1733C58.5302 66.9521 55.6259 65.7297 53.2166 63.044Z" fill="#EBA68B"/>
</svg>
