<svg width="71" height="60" viewBox="0 0 71 60" fill="none" xmlns="http://www.w3.org/2000/svg">
<path d="M30.2231 35.3983C31.7886 36.2578 33.5546 36.5021 35.5726 35.7798C37.616 35.0483 39.8752 33.3415 42.4739 30.4036L42.4949 30.3799L42.5128 30.3542C44.7016 27.2126 45.4222 24.0592 45.8101 20.9586C45.9276 20.0201 46.0144 19.0956 46.1004 18.1798C46.3016 16.038 46.4983 13.9439 47.0713 11.8297L47.3812 10.6865L46.2321 11.2186C45.5246 11.5463 44.7992 11.8715 44.0631 12.2015C41.8042 13.2143 39.4439 14.2725 37.184 15.5871C37.2774 15.9589 37.3601 16.3384 37.4316 16.7246C39.7225 15.3557 42.165 14.2582 44.5634 13.1805C44.9284 13.0165 45.2924 12.853 45.6547 12.689C45.2587 14.5235 45.0852 16.3685 44.9149 18.1783C44.8306 19.0747 44.7471 19.9624 44.6378 20.836C44.2598 23.8567 43.5717 26.8148 41.5354 29.7489C38.9938 32.6176 36.8984 34.1466 35.1425 34.7751C33.8951 35.2215 32.7997 35.2211 31.7889 34.8923C31.347 35.1401 30.8119 35.3175 30.2231 35.3983Z" fill="#FFFAEE"/>
<path d="M45.196 21.5075C45.2198 21.1816 45.2318 20.853 45.2318 20.5218C45.2318 20.4899 45.2317 20.4581 45.2315 20.4262C48.3455 20.2753 51.389 20.5375 54.2826 20.7867C55.0988 20.8569 55.903 20.9262 56.6936 20.9849L58.0751 21.0874L57.0366 21.9268C54.5934 23.9014 52.9739 25.9447 51.3971 27.9342C51.0424 28.3817 50.6898 28.8266 50.3305 29.2673C48.3787 31.6614 46.2576 33.8871 42.5879 35.5237L42.5579 35.537L42.5265 35.5472C38.632 36.8106 35.7304 37.1866 33.5702 36.8339C32.1967 36.6097 31.1412 36.0938 30.3384 35.3595C30.8714 35.3079 31.397 35.2339 31.9138 35.1386C32.4304 35.4371 33.0445 35.6521 33.7775 35.7718C35.6338 36.0748 38.2942 35.7722 42.1004 34.5406C45.5032 33.0162 47.4823 30.9557 49.3845 28.6224C49.728 28.2011 50.07 27.7693 50.4181 27.3298C51.7858 25.6028 53.2481 23.7564 55.2695 21.9551C54.8973 21.9242 54.5242 21.8924 54.15 21.8604C51.2146 21.61 48.2195 21.3545 45.196 21.5075Z" fill="#FFFAEE"/>
<path d="M30.4399 34.9663C30.8798 35.5375 31.5018 36.0483 32.3346 36.4855C34.1492 37.438 36.9586 38.0408 41.0703 38.2457L41.0993 38.2472L41.1282 38.246C45.2004 38.0834 48.1812 36.8398 51.0446 35.4778C51.4102 35.3039 51.7732 35.1285 52.1359 34.9532C54.6226 33.7516 57.0977 32.5556 60.2948 31.9023L62 31.5538L60.4128 30.8857C59.7148 30.592 59.0093 30.2857 58.2937 29.975C56.0526 29.0019 53.7122 27.9857 51.1925 27.1768C51.0465 27.5111 50.8797 27.839 50.6931 28.1599C53.1676 28.9485 55.4912 29.9556 57.7703 30.9433C57.993 31.0399 58.2153 31.1362 58.4373 31.2322C55.8185 31.9509 53.6489 33.0004 51.5747 34.0037L51.5743 34.0039C51.214 34.1782 50.8565 34.3511 50.5001 34.5206C47.6876 35.8584 44.9003 37.0102 41.1055 37.1669C37.0699 36.9635 34.4917 36.3737 32.9221 35.5498C32.7634 35.4665 32.615 35.3808 32.4764 35.2928C31.7823 35.2132 31.1025 35.1037 30.4399 34.9663Z" fill="#FFFAEE"/>
<path d="M31.0723 35.3596C29.565 36.2197 27.8648 36.4641 25.9219 35.7413C23.9545 35.0094 21.7794 33.3014 19.2774 30.3617L19.2573 30.338L19.24 30.3123C17.1327 27.1686 16.4389 24.0131 16.0654 20.9106C15.9523 19.9715 15.8687 19.0463 15.7859 18.1299C15.5922 15.9868 15.4028 13.8913 14.8511 11.7757L14.5528 10.6318L15.6591 11.1643C16.3403 11.4922 17.0386 11.8176 17.7473 12.1478C19.9222 13.1612 22.1947 14.2201 24.3704 15.5356C24.2806 15.9077 24.201 16.2873 24.1321 16.6739C21.9264 15.3041 19.5748 14.2058 17.2657 13.1275C16.9143 12.9633 16.5638 12.7997 16.215 12.6356C16.5963 14.4713 16.7633 16.3175 16.9272 18.1285C17.0084 19.0254 17.0888 19.9137 17.1941 20.7879C17.558 23.8106 18.2205 26.7706 20.181 29.7065C22.628 32.5771 24.6454 34.1071 26.336 34.736C27.537 35.1827 28.5916 35.1822 29.5648 34.8533C29.9902 35.1012 30.5054 35.2787 31.0723 35.3596Z" fill="#FFFAEE"/>
<path d="M16.7455 21.4651C16.7225 21.14 16.7109 20.812 16.7109 20.4815C16.7109 20.4497 16.711 20.4179 16.7112 20.3861C13.7084 20.2355 10.7736 20.4971 7.98347 20.7458C7.19643 20.8159 6.4209 20.8851 5.6586 20.9436L4.32641 21.0459L5.32787 21.8836C7.6838 23.8541 9.24542 25.8933 10.7659 27.8786C11.1079 28.3253 11.4479 28.7692 11.7943 29.209C13.6764 31.5981 15.7218 33.8193 19.2604 35.4525L19.2893 35.4658L19.3195 35.476C23.0749 36.7368 25.8728 37.112 27.9559 36.7601C29.2804 36.5363 30.2982 36.0215 31.0723 35.2887C30.5583 35.2372 30.0515 35.1634 29.5532 35.0683C29.055 35.3661 28.4628 35.5807 27.756 35.7001C25.966 36.0025 23.4007 35.7006 19.7304 34.4714C16.4492 32.9502 14.5408 30.8939 12.7066 28.5655C12.3753 28.145 12.0456 27.7141 11.7099 27.2755C10.391 25.552 8.98095 23.7094 7.0318 21.9118C7.39066 21.881 7.75052 21.8492 8.11131 21.8174C10.9418 21.5675 13.83 21.3125 16.7455 21.4651Z" fill="#FFFAEE"/>
<path d="M30.6792 35.0207C30.2516 35.5959 29.647 36.1104 28.8374 36.5507C27.0735 37.51 24.3425 38.117 20.3456 38.3235L20.3175 38.3249L20.2893 38.3237C16.3308 38.16 13.4332 36.9075 10.6497 35.5358C10.2944 35.3607 9.94151 35.1841 9.58888 35.0076C7.17161 33.7974 4.7656 32.5929 1.65779 31.9349L0.000125885 31.584L1.54308 30.9111C2.2216 30.6153 2.90738 30.3068 3.60298 29.9939C5.78156 29.0139 8.05661 27.9905 10.506 27.1758C10.6479 27.5125 10.8101 27.8428 10.9915 28.1659C8.58601 28.9601 6.32725 29.9744 4.11183 30.9691C3.89531 31.0664 3.6792 31.1634 3.4634 31.26C6.00912 31.9839 8.11814 33.0408 10.1344 34.0512L10.1348 34.0514C10.4851 34.227 10.8325 34.4011 11.179 34.5718C13.913 35.9191 16.6225 37.0791 20.3114 37.237C24.2343 37.0322 26.7405 36.4381 28.2663 35.6083C28.4206 35.5244 28.5649 35.4381 28.6995 35.3496C29.3743 35.2694 30.0351 35.1591 30.6792 35.0207Z" fill="#FFFAEE"/>
<path fill-rule="evenodd" clip-rule="evenodd" d="M31.9144 35.2492C31.6061 35.3757 31.2521 35.4476 30.8757 35.4476C30.4316 35.4476 30.0188 35.3475 29.6754 35.1758L27.1392 37.4948L30.7547 43.0002L34.3703 37.4948L31.9144 35.2492ZM30.7547 40.9044L28.6252 37.6619L30.7547 35.7147L32.8842 37.6619L30.7547 40.9044Z" fill="#FFFAEE"/>
<ellipse cx="30.6788" cy="37.4252" rx="0.589982" ry="0.539474" fill="#FFFAEE"/>
<ellipse cx="30.679" cy="39.0442" rx="0.393322" ry="0.359648" fill="#FFFAEE"/>
<path fill-rule="evenodd" clip-rule="evenodd" d="M31.8124 1.78884L31.3132 0.712891L30.7416 1.75827C29.1678 4.63629 27.1391 8.4073 25.5045 12.4469C23.872 16.481 22.6162 20.8214 22.6162 24.8372V24.8617L22.6186 24.8861C23.0178 28.9008 24.1326 31.67 25.6873 33.4463C27.2577 35.2405 29.2479 35.9864 31.2693 35.9864C33.2941 35.9864 35.1005 35.2816 36.5018 33.4905C37.8728 31.738 38.8331 28.9761 39.3288 24.8968L39.3324 24.8671V24.8372C39.3324 20.8249 38.1276 16.532 36.5952 12.5235C35.3856 9.35916 33.9584 6.34013 32.7377 3.75764C32.4119 3.06844 32.1008 2.41032 31.8124 1.78884ZM26.6085 32.7721C25.2544 31.2249 24.1857 28.6965 23.7962 24.8128C23.8013 20.9894 25.0021 16.7975 26.6111 12.8213C28.033 9.30754 29.761 5.99206 31.2287 3.28404C31.3703 3.58456 31.5152 3.89127 31.6629 4.20374L31.6631 4.20419C32.8825 6.78381 34.2872 9.75576 35.4814 12.8795C36.9933 16.8346 38.1464 20.9822 38.1524 24.8075C37.6638 28.8031 36.7356 31.3372 35.5421 32.8627C34.3758 34.3534 32.9373 34.9074 31.2693 34.9074C31.1811 34.9074 31.0929 34.9057 31.0049 34.9023L30.8899 35.0075L30.7596 34.8883C29.2653 34.775 27.8132 34.1485 26.6085 32.7721Z" fill="#FFFAEE"/>
<path d="M9.984 47.176L10.816 49.464C10.912 49.752 10.976 49.96 10.976 50.12C10.976 50.44 10.736 50.536 10.048 50.536V51H13.104V50.536C12.496 50.536 12.288 50.376 11.936 49.416L8.032 38.952H7.504L3.952 49.64C3.696 50.392 3.52 50.536 2.896 50.536V51H5.52V50.536C4.848 50.536 4.608 50.456 4.608 50.12C4.608 49.944 4.672 49.688 4.784 49.336L5.456 47.176H9.984ZM9.76 46.568H5.648L7.552 40.664H7.616L9.76 46.568ZM23.184 40.6C23.184 40.312 22.96 40.024 22.576 40.024C22.224 40.024 21.968 40.328 21.968 40.664C21.968 41.288 22.688 41.704 24 41.704C25.296 41.704 26.016 41.288 26.016 40.664C26.016 40.328 25.76 40.024 25.408 40.024C25.024 40.024 24.8 40.312 24.8 40.6C24.8 40.776 24.864 40.888 25.008 41C24.768 41.144 24.432 41.24 24 41.24C23.568 41.24 23.216 41.144 22.976 41C23.184 40.856 23.184 40.696 23.184 40.6ZM28.416 43H25.472V43.4C26.368 43.4 26.368 43.464 26.368 44.312L21.584 48.872V44.2C21.584 43.432 21.632 43.4 22.496 43.4V43H19.552V43.4C20.464 43.4 20.544 43.432 20.544 44.2V49.784C20.544 50.552 20.464 50.6 19.552 50.6V51H22.496V50.6C21.632 50.6 21.584 50.552 21.584 49.736L26.368 45.208V49.784C26.368 50.552 26.32 50.6 25.472 50.6V51H28.416V50.6C27.488 50.6 27.408 50.552 27.408 49.784V44.184C27.408 43.432 27.488 43.4 28.416 43.4V43ZM41.216 46.712C42.352 46.488 43.024 45.752 43.024 44.824C43.024 43 40.48 43 39.824 43H36.544V43.4C37.504 43.4 37.536 43.432 37.536 44.184V49.816C37.536 50.552 37.504 50.584 36.544 50.584V51H40.4C41.552 51 42.368 50.744 42.88 50.296C43.264 49.944 43.552 49.4 43.552 48.712C43.552 47.592 42.496 46.92 41.216 46.744V46.712ZM38.576 46.568V43.848C38.576 43.608 38.608 43.528 38.848 43.528H39.936C40.752 43.528 41.968 43.688 41.968 44.936C41.968 46.152 40.608 46.568 39.632 46.568H38.576ZM38.96 50.472C38.624 50.472 38.576 50.408 38.576 49.992V47.048H39.888C41.856 47.048 42.464 47.976 42.464 48.696C42.464 49.608 41.952 50.472 40.32 50.472H38.96ZM59.04 45.272C59.04 43.8 58.368 42.792 56.224 42.792C54.24 42.792 53.104 43.848 53.104 44.568C53.104 44.808 53.232 45.016 53.52 45.016C53.84 45.016 54 44.856 54.08 44.632C54.288 44.232 54.464 43.96 54.72 43.768C55.12 43.48 55.536 43.304 56.144 43.304C57.44 43.304 58 43.944 58 45.144V45.88L56.848 46.12C53.024 46.872 52.704 48.216 52.704 49.144C52.704 50.472 53.888 51.208 55.264 51.208C56.512 51.208 57.328 50.792 58.048 50.136H58.096C58.24 50.76 58.608 51.096 59.232 51.096C59.68 51.096 59.952 51.016 60.24 50.872L60.128 50.504C59.968 50.584 59.808 50.632 59.616 50.632C59.216 50.632 59.04 50.216 59.04 49.384V45.272ZM58 49.56C57.424 50.104 56.688 50.6 55.664 50.6C54.512 50.6 53.808 50.056 53.808 49.016C53.808 47.816 54.96 47.08 58 46.408V49.56Z" fill="#FFFAEE"/>
</svg>
