<svg width="71" height="60" viewBox="0 0 71 60" fill="none" xmlns="http://www.w3.org/2000/svg">
<path d="M30.2231 35.3984C31.7886 36.258 33.5546 36.5022 35.5726 35.7799C37.616 35.0485 39.8752 33.3416 42.4739 30.4038L42.4949 30.3801L42.5128 30.3544C44.7016 27.2128 45.4222 24.0593 45.8101 20.9588C45.9276 20.0202 46.0144 19.0957 46.1004 18.1799C46.3016 16.0382 46.4983 13.9441 47.0713 11.8298L47.3812 10.6867L46.2321 11.2188C45.5246 11.5464 44.7992 11.8716 44.0631 12.2016C41.8042 13.2144 39.4439 14.2726 37.184 15.5873C37.2774 15.9591 37.3601 16.3385 37.4316 16.7248C39.7225 15.3559 42.165 14.2584 44.5634 13.1807C44.9284 13.0167 45.2924 12.8531 45.6547 12.6891C45.2587 14.5237 45.0852 16.3686 44.9149 18.1785C44.8306 19.0748 44.7471 19.9625 44.6378 20.8361C44.2598 23.8569 43.5717 26.815 41.5354 29.749C38.9938 32.6177 36.8984 34.1467 35.1425 34.7752C33.8951 35.2217 32.7997 35.2212 31.7889 34.8925C31.347 35.1402 30.8119 35.3176 30.2231 35.3984Z" fill="#5C3F2A"/>
<path d="M45.1962 21.5076C45.22 21.1818 45.2321 20.8531 45.2321 20.5219C45.2321 20.4901 45.232 20.4582 45.2317 20.4264C48.3458 20.2755 51.3893 20.5376 54.2828 20.7868C55.099 20.8571 55.9033 20.9263 56.6938 20.985L58.0754 21.0876L57.0368 21.9269C54.5936 23.9016 52.9741 25.9449 51.3973 27.9343C51.0426 28.3819 50.6901 28.8267 50.3308 29.2674C48.379 31.6615 46.2578 33.8872 42.5881 35.5238L42.5582 35.5372L42.5268 35.5474C38.6323 36.8107 35.7307 37.1867 33.5704 36.8341C32.1969 36.6098 31.1414 36.0939 30.3386 35.3597C30.8717 35.3081 31.3972 35.2341 31.914 35.1388C32.4306 35.4372 33.0447 35.6522 33.7778 35.7719C35.6341 36.0749 38.2944 35.7724 42.1007 34.5407C45.5035 33.0163 47.4825 30.9558 49.3847 28.6226C49.7282 28.2012 50.0702 27.7694 50.4183 27.3299C51.7861 25.6029 53.2484 23.7565 55.2697 21.9552C54.8976 21.9243 54.5244 21.8925 54.1503 21.8606C51.2149 21.6102 48.2197 21.3546 45.1962 21.5076Z" fill="#5C3F2A"/>
<path d="M30.4399 34.9662C30.8798 35.5373 31.5018 36.0482 32.3346 36.4854C34.1492 37.4379 36.9586 38.0407 41.0703 38.2456L41.0993 38.2471L41.1282 38.2459C45.2004 38.0833 48.1812 36.8397 51.0446 35.4777C51.4102 35.3038 51.7732 35.1284 52.1359 34.9531C54.6226 33.7515 57.0977 32.5555 60.2948 31.9022L62 31.5537L60.4128 30.8856C59.7148 30.5919 59.0093 30.2856 58.2937 29.9749C56.0526 29.0018 53.7122 27.9856 51.1925 27.1767C51.0465 27.511 50.8797 27.8389 50.6931 28.1598C53.1676 28.9484 55.4912 29.9555 57.7703 30.9432C57.993 31.0398 58.2153 31.1361 58.4373 31.2321C55.8185 31.9508 53.6489 33.0003 51.5747 34.0036L51.5743 34.0038C51.214 34.1781 50.8565 34.351 50.5001 34.5205C47.6876 35.8582 44.9003 37.0101 41.1055 37.1668C37.0699 36.9634 34.4917 36.3736 32.9221 35.5497C32.7634 35.4663 32.615 35.3807 32.4764 35.2927C31.7823 35.2131 31.1025 35.1036 30.4399 34.9662Z" fill="#5C3F2A"/>
<path d="M31.0725 35.3593C29.5653 36.2194 27.865 36.4638 25.9221 35.7411C23.9547 35.0092 21.7797 33.3012 19.2777 30.3614L19.2575 30.3377L19.2403 30.312C17.1329 27.1684 16.4391 24.0129 16.0656 20.9103C15.9525 19.9712 15.8689 19.0461 15.7861 18.1297C15.5925 15.9866 15.4031 13.8911 14.8513 11.7755L14.553 10.6316L15.6593 11.164C16.3406 11.4919 17.0389 11.8173 17.7476 12.1475C19.9225 13.161 22.1949 14.2199 24.3707 15.5353C24.2808 15.9074 24.2012 16.2871 24.1323 16.6736C21.9267 15.3038 19.5751 14.2056 17.2659 13.1272C16.9145 12.9631 16.5641 12.7994 16.2153 12.6353C16.5965 14.4711 16.7636 16.3172 16.9275 18.1282C17.0087 19.0252 17.0891 19.9135 17.1943 20.7876C17.5582 23.8103 18.2208 26.7703 20.1812 29.7063C22.6283 32.5768 24.6457 34.1068 26.3363 34.7357C27.5372 35.1825 28.5919 35.182 29.565 34.853C29.9904 35.101 30.5057 35.2785 31.0725 35.3593Z" fill="#5C3F2A"/>
<path d="M16.7457 21.4654C16.7228 21.1403 16.7111 20.8123 16.7111 20.4818C16.7111 20.45 16.7112 20.4182 16.7114 20.3864C13.7087 20.2358 10.7739 20.4974 7.98371 20.7461C7.19668 20.8162 6.42115 20.8854 5.65885 20.9439L4.32665 21.0462L5.32811 21.8839C7.68404 23.8545 9.24566 25.8936 10.7661 27.8789C11.1082 28.3256 11.4481 28.7695 11.7946 29.2093C13.6766 31.5984 15.722 33.8196 19.2606 35.4528L19.2895 35.4661L19.3198 35.4763C23.0751 36.7371 25.8731 37.1123 27.9562 36.7604C29.2806 36.5366 30.2984 36.0218 31.0725 35.289C30.5585 35.2375 30.0518 35.1637 29.5534 35.0686C29.0552 35.3664 28.4631 35.581 27.7562 35.7004C25.9662 36.0028 23.401 35.7009 19.7306 34.4718C16.4494 32.9505 14.5411 30.8942 12.7068 28.5658C12.3756 28.1453 12.0458 27.7144 11.7102 27.2758C10.3913 25.5523 8.9812 23.7097 7.03205 21.9121C7.39091 21.8813 7.75076 21.8495 8.11155 21.8177C10.942 21.5678 13.8302 21.3128 16.7457 21.4654Z" fill="#5C3F2A"/>
<path d="M30.679 35.0204C30.2514 35.5956 29.6468 36.1101 28.8372 36.5504C27.0732 37.5097 24.3422 38.1167 20.3453 38.3231L20.3172 38.3246L20.2891 38.3234C16.3306 38.1597 13.433 36.9072 10.6495 35.5355C10.2941 35.3604 9.94127 35.1837 9.58864 35.0072C7.17136 33.7971 4.76536 32.5925 1.65755 31.9346L-0.000118256 31.5836L1.54283 30.9108C2.22136 30.6149 2.90714 30.3064 3.60274 29.9935C5.78131 29.0136 8.05636 27.9902 10.5057 27.1754C10.6476 27.5121 10.8098 27.8424 10.9912 28.1656C8.58577 28.9598 6.32701 29.974 4.11159 30.9688C3.89507 31.066 3.67895 31.1631 3.46316 31.2597C6.00887 31.9836 8.1179 33.0405 10.1342 34.0509L10.1345 34.0511C10.4848 34.2266 10.8323 34.4008 11.1788 34.5715C13.9128 35.9188 16.6223 37.0788 20.3111 37.2366C24.2341 37.0318 26.7403 36.4378 28.2661 35.608C28.4204 35.5241 28.5646 35.4378 28.6993 35.3492C29.3741 35.2691 30.0349 35.1588 30.679 35.0204Z" fill="#5C3F2A"/>
<path fill-rule="evenodd" clip-rule="evenodd" d="M31.9144 35.249C31.6061 35.3754 31.2521 35.4474 30.8757 35.4474C30.4316 35.4474 30.0188 35.3473 29.6754 35.1756L27.1392 37.4946L30.7547 43L34.3703 37.4946L31.9144 35.249ZM30.7547 40.9042L28.6252 37.6617L30.7547 35.7145L32.8842 37.6617L30.7547 40.9042Z" fill="#5C3F2A"/>
<ellipse cx="30.6791" cy="37.4254" rx="0.589982" ry="0.539474" fill="#5C3F2A"/>
<ellipse cx="30.679" cy="39.0439" rx="0.393322" ry="0.359648" fill="#5C3F2A"/>
<path fill-rule="evenodd" clip-rule="evenodd" d="M31.8122 1.78931L31.313 0.713364L30.7413 1.75874C29.1676 4.63676 27.1389 8.40778 25.5042 12.4474C23.8717 16.4815 22.616 20.8219 22.616 24.8377V24.8622L22.6184 24.8866C23.0175 28.9013 24.1324 31.6704 25.687 33.4467C27.2574 35.241 29.2476 35.9868 31.269 35.9868C33.2939 35.9868 35.1002 35.2821 36.5015 33.491C37.8726 31.7385 38.8328 28.9766 39.3285 24.8973L39.3321 24.8676V24.8377C39.3321 20.8254 38.1274 16.5325 36.595 12.524C35.3853 9.35963 33.9582 6.3406 32.7374 3.75812C32.4116 3.06891 32.1005 2.4108 31.8122 1.78931ZM26.6083 32.7726C25.2541 31.2254 24.1855 28.697 23.7959 24.8133C23.801 20.9899 25.0018 16.798 26.6108 12.8218C28.0327 9.30801 29.7607 5.99253 31.2285 3.28451C31.37 3.58504 31.515 3.89175 31.6627 4.20421L31.6629 4.20466C32.8822 6.78428 34.287 9.75623 35.4811 12.88C36.9931 16.8351 38.1462 20.9827 38.1521 24.8079C37.6636 28.8035 36.7353 31.3377 35.5418 32.8632C34.3756 34.3539 32.937 34.9079 31.269 34.9079C31.1808 34.9079 31.0927 34.9062 31.0047 34.9028L30.8897 35.0079L30.7594 34.8888C29.2651 34.7755 27.813 34.149 26.6083 32.7726Z" fill="#5C3F2A"/>
<path d="M9.984 47.176L10.816 49.464C10.912 49.752 10.976 49.96 10.976 50.12C10.976 50.44 10.736 50.536 10.048 50.536V51H13.104V50.536C12.496 50.536 12.288 50.376 11.936 49.416L8.032 38.952H7.504L3.952 49.64C3.696 50.392 3.52 50.536 2.896 50.536V51H5.52V50.536C4.848 50.536 4.608 50.456 4.608 50.12C4.608 49.944 4.672 49.688 4.784 49.336L5.456 47.176H9.984ZM9.76 46.568H5.648L7.552 40.664H7.616L9.76 46.568ZM23.184 40.6C23.184 40.312 22.96 40.024 22.576 40.024C22.224 40.024 21.968 40.328 21.968 40.664C21.968 41.288 22.688 41.704 24 41.704C25.296 41.704 26.016 41.288 26.016 40.664C26.016 40.328 25.76 40.024 25.408 40.024C25.024 40.024 24.8 40.312 24.8 40.6C24.8 40.776 24.864 40.888 25.008 41C24.768 41.144 24.432 41.24 24 41.24C23.568 41.24 23.216 41.144 22.976 41C23.184 40.856 23.184 40.696 23.184 40.6ZM28.416 43H25.472V43.4C26.368 43.4 26.368 43.464 26.368 44.312L21.584 48.872V44.2C21.584 43.432 21.632 43.4 22.496 43.4V43H19.552V43.4C20.464 43.4 20.544 43.432 20.544 44.2V49.784C20.544 50.552 20.464 50.6 19.552 50.6V51H22.496V50.6C21.632 50.6 21.584 50.552 21.584 49.736L26.368 45.208V49.784C26.368 50.552 26.32 50.6 25.472 50.6V51H28.416V50.6C27.488 50.6 27.408 50.552 27.408 49.784V44.184C27.408 43.432 27.488 43.4 28.416 43.4V43ZM41.216 46.712C42.352 46.488 43.024 45.752 43.024 44.824C43.024 43 40.48 43 39.824 43H36.544V43.4C37.504 43.4 37.536 43.432 37.536 44.184V49.816C37.536 50.552 37.504 50.584 36.544 50.584V51H40.4C41.552 51 42.368 50.744 42.88 50.296C43.264 49.944 43.552 49.4 43.552 48.712C43.552 47.592 42.496 46.92 41.216 46.744V46.712ZM38.576 46.568V43.848C38.576 43.608 38.608 43.528 38.848 43.528H39.936C40.752 43.528 41.968 43.688 41.968 44.936C41.968 46.152 40.608 46.568 39.632 46.568H38.576ZM38.96 50.472C38.624 50.472 38.576 50.408 38.576 49.992V47.048H39.888C41.856 47.048 42.464 47.976 42.464 48.696C42.464 49.608 41.952 50.472 40.32 50.472H38.96ZM59.04 45.272C59.04 43.8 58.368 42.792 56.224 42.792C54.24 42.792 53.104 43.848 53.104 44.568C53.104 44.808 53.232 45.016 53.52 45.016C53.84 45.016 54 44.856 54.08 44.632C54.288 44.232 54.464 43.96 54.72 43.768C55.12 43.48 55.536 43.304 56.144 43.304C57.44 43.304 58 43.944 58 45.144V45.88L56.848 46.12C53.024 46.872 52.704 48.216 52.704 49.144C52.704 50.472 53.888 51.208 55.264 51.208C56.512 51.208 57.328 50.792 58.048 50.136H58.096C58.24 50.76 58.608 51.096 59.232 51.096C59.68 51.096 59.952 51.016 60.24 50.872L60.128 50.504C59.968 50.584 59.808 50.632 59.616 50.632C59.216 50.632 59.04 50.216 59.04 49.384V45.272ZM58 49.56C57.424 50.104 56.688 50.6 55.664 50.6C54.512 50.6 53.808 50.056 53.808 49.016C53.808 47.816 54.96 47.08 58 46.408V49.56Z" fill="#5C3F2A"/>
</svg>
