<svg width="15" height="15" viewBox="0 0 15 15" fill="none" xmlns="http://www.w3.org/2000/svg">
<g clip-path="url(#clip0_63_149)">
<path d="M7.50005 2.7998C7.02785 2.7998 6.56625 2.93983 6.17363 3.20217C5.781 3.46451 5.47499 3.83739 5.29429 4.27365C5.11358 4.70991 5.0663 5.18995 5.15843 5.65308C5.25055 6.11621 5.47793 6.54162 5.81183 6.87552C6.14573 7.20942 6.57114 7.43681 7.03427 7.52893C7.4974 7.62105 7.97745 7.57377 8.41371 7.39307C8.84997 7.21236 9.22284 6.90635 9.48518 6.51373C9.74753 6.12111 9.88755 5.65951 9.88755 5.1873C9.88755 4.5541 9.63601 3.94683 9.18827 3.49909C8.74052 3.05134 8.13325 2.7998 7.50005 2.7998ZM7.50005 6.74147C7.19266 6.74147 6.89218 6.65032 6.6366 6.47955C6.38102 6.30877 6.18182 6.06605 6.06419 5.78206C5.94656 5.49807 5.91578 5.18558 5.97575 4.8841C6.03571 4.58262 6.18373 4.3057 6.40109 4.08834C6.61844 3.87099 6.89537 3.72297 7.19685 3.663C7.49833 3.60303 7.81082 3.63381 8.0948 3.75144C8.37879 3.86907 8.62152 4.06827 8.79229 4.32386C8.96307 4.57944 9.05422 4.87992 9.05422 5.1873C9.05311 5.59877 8.88888 5.99301 8.59754 6.28357C8.3062 6.57414 7.91152 6.73731 7.50005 6.7373V6.74147Z" fill="#5C3F2A" fill-opacity="0.61"/>
<path d="M7.49989 0.833008C6.20205 0.834092 4.95738 1.34871 4.03772 2.26446C3.11807 3.18022 2.59816 4.42269 2.59155 5.72051C2.59155 7.66634 3.68322 9.29551 4.48322 10.483L4.62905 10.6997C5.425 11.8533 6.27887 12.9658 7.18739 14.033L7.50405 14.4038L7.82072 14.033C8.72912 12.9657 9.58298 11.8532 10.3791 10.6997L10.5249 10.4788C11.3207 9.29134 12.4124 7.66634 12.4124 5.72051C12.4058 4.42197 11.8853 3.17887 10.9647 2.263C10.0442 1.34712 8.79844 0.832991 7.49989 0.833008ZM9.82905 9.99967L9.67905 10.2205C8.96239 11.2955 8.01239 12.4997 7.49989 13.0955C7.00822 12.4997 6.03739 11.2955 5.32072 10.2205L5.17489 9.99967C4.43739 8.89967 3.42489 7.39551 3.42489 5.70384C3.42489 5.1687 3.53029 4.63881 3.73508 4.14441C3.93987 3.65 4.24003 3.20078 4.61843 2.82238C4.99682 2.44398 5.44605 2.14382 5.94045 1.93903C6.43485 1.73424 6.96475 1.62884 7.49989 1.62884C8.03502 1.62884 8.56492 1.73424 9.05932 1.93903C9.55372 2.14382 10.0029 2.44398 10.3813 2.82238C10.7597 3.20078 11.0599 3.65 11.2647 4.14441C11.4695 4.63881 11.5749 5.1687 11.5749 5.70384C11.5749 7.41217 10.5666 8.91634 9.82905 9.99967Z" fill="#5C3F2A" fill-opacity="0.61"/>
</g>
<defs>
<clipPath id="clip0_63_149">
<rect width="15" height="15" fill="white"/>
</clipPath>
</defs>
</svg>
