<svg width="15" height="15" viewBox="0 0 15 15" fill="none" xmlns="http://www.w3.org/2000/svg">
<g clip-path="url(#clip0_63_153)">
<path d="M10.3203 15.4665C5.73242 15.4665 2 11.7341 2 7.14619C2.00083 6.37608 2.28197 5.63262 2.79092 5.05466C3.29987 4.4767 4.00181 4.10378 4.76562 4.00556C4.94138 3.98499 5.11908 4.0218 5.2722 4.11051C5.42532 4.19921 5.54565 4.33505 5.61523 4.49775L6.79297 7.2458C6.84639 7.37014 6.86846 7.5057 6.85722 7.64056C6.84598 7.77542 6.80178 7.90546 6.72852 8.01924L5.75 9.50752C5.74033 9.5243 5.73476 9.54313 5.73374 9.56248C5.73272 9.58182 5.73628 9.60114 5.74414 9.61885C6.19422 10.5417 6.94119 11.2866 7.86524 11.7341C7.88317 11.7421 7.90292 11.7453 7.92248 11.7432C7.94203 11.7412 7.96069 11.734 7.97656 11.7224L9.44727 10.7438C9.55993 10.6682 9.68982 10.622 9.82499 10.6098C9.96016 10.5975 10.0962 10.6194 10.2207 10.6735L12.9688 11.8513C13.1315 11.9208 13.2673 12.0412 13.356 12.1943C13.4447 12.3474 13.4815 12.5251 13.4609 12.7009C13.3627 13.4647 12.9898 14.1666 12.4118 14.6756C11.8339 15.1845 11.0904 15.4657 10.3203 15.4665ZM4.86523 4.70283H4.85352C4.26006 4.78084 3.71505 5.07147 3.3196 5.52079C2.92415 5.97012 2.70511 6.54763 2.70313 7.14619C2.70468 9.16592 3.5077 11.1025 4.93586 12.5306C6.36403 13.9588 8.30059 14.7618 10.3203 14.7634C10.9189 14.7614 11.4964 14.5424 11.9457 14.1469C12.395 13.7515 12.6857 13.2064 12.7637 12.613C12.7657 12.5886 12.76 12.5641 12.7474 12.5431C12.7348 12.5221 12.7159 12.5055 12.6934 12.4958L9.94531 11.3181C9.92715 11.3111 9.90759 11.3085 9.88824 11.3105C9.86889 11.3126 9.85029 11.3192 9.83398 11.3298L8.36914 12.3083C8.25054 12.3862 8.11399 12.4325 7.97246 12.4427C7.83094 12.453 7.68914 12.4269 7.56055 12.3669C6.49474 11.848 5.63274 10.9881 5.11133 9.92353C5.05044 9.79647 5.0233 9.65586 5.03254 9.51526C5.04177 9.37466 5.08707 9.23881 5.16406 9.1208L6.13672 7.63252C6.14833 7.61665 6.15553 7.59799 6.15759 7.57843C6.15965 7.55888 6.15649 7.53913 6.14844 7.52119L4.9707 4.77314C4.96172 4.75254 4.947 4.73496 4.9283 4.7225C4.9096 4.71003 4.88771 4.7032 4.86523 4.70283Z" fill="#5C3F2A" fill-opacity="0.61"/>
</g>
<defs>
<clipPath id="clip0_63_153">
<rect width="15" height="15" fill="white"/>
</clipPath>
</defs>
</svg>
