<svg width="25" height="22" viewBox="0 0 25 22" fill="none" xmlns="http://www.w3.org/2000/svg">
<path d="M23.9372 1.11902C23.7437 0.963081 23.5084 0.859297 23.2565 0.818828C23.0046 0.778358 22.7456 0.802734 22.5075 0.889334L0.886385 8.81902C0.605403 8.92336 0.367944 9.10946 0.209235 9.34971C0.0505264 9.58996 -0.0209767 9.87156 0.00533405 10.1527C0.0316448 10.4339 0.154367 10.6997 0.355295 10.9106C0.556224 11.1215 0.824653 11.2664 1.12076 11.3237L6.99185 12.4284V19.1878C6.98829 19.4482 7.06921 19.7035 7.22398 19.9202C7.37876 20.1368 7.60014 20.3048 7.85904 20.4018C8.03429 20.4669 8.2212 20.5003 8.40982 20.5003C8.59288 20.5005 8.77416 20.4667 8.94314 20.401C9.11212 20.3353 9.26543 20.2389 9.3942 20.1175L12.7458 16.9893L17.6911 21.0471C17.9445 21.2613 18.275 21.3784 18.6169 21.3753C18.7642 21.3749 18.9105 21.3528 19.0504 21.3096C19.2808 21.2391 19.488 21.1146 19.6521 20.948C19.8163 20.7814 19.9319 20.5783 19.9879 20.3581L24.3942 2.39871C24.4519 2.16682 24.4397 1.92455 24.3591 1.6987C24.2784 1.47286 24.1324 1.27223 23.9372 1.11902ZM0.93326 10.0768C0.919321 9.98203 0.940857 9.88565 0.994231 9.80395C1.04761 9.72225 1.12955 9.66024 1.22623 9.6284L21.0544 2.3659L7.35513 11.5971L1.30826 10.4706C1.20754 10.4536 1.11584 10.4056 1.04785 10.3342C0.979856 10.2628 0.939505 10.1722 0.93326 10.0768ZM8.72623 19.494C8.66255 19.5558 8.58042 19.5982 8.49054 19.6158C8.40066 19.6333 8.30719 19.6252 8.22232 19.5925C8.13591 19.5598 8.06189 19.5039 8.0097 19.4318C7.95752 19.3597 7.92954 19.2748 7.92935 19.1878V13.03L12.0426 16.4096L8.72623 19.494ZM23.4801 2.21277L19.0739 20.1612C19.0563 20.2356 19.0177 20.3043 18.9621 20.3601C18.9064 20.4159 18.8358 20.4567 18.7575 20.4784C18.6819 20.5038 18.6002 20.509 18.5215 20.4936C18.4429 20.4781 18.3704 20.4426 18.3122 20.3909L8.2106 12.1003L23.4098 1.85183C23.4481 1.90397 23.4742 1.96308 23.4863 2.02529C23.4984 2.08749 23.4963 2.15138 23.4801 2.21277Z" fill="#FFFAEE"/>
</svg>
