<svg width="26" height="24" viewBox="0 0 26 24" fill="none" xmlns="http://www.w3.org/2000/svg">
<path d="M17.0854 13.9129C16.5721 13.381 15.9573 12.9494 15.2748 12.6416C16.2454 12.0649 17.0873 11.3076 17.7513 10.4139C18.4153 9.52019 18.8881 8.50797 19.1423 7.43625C19.1619 7.3633 19.166 7.28731 19.1546 7.21278C19.1431 7.13825 19.1162 7.0667 19.0755 7.00238C19.0348 6.93806 18.9811 6.88228 18.9176 6.83836C18.8541 6.79443 18.7822 6.76325 18.7059 6.74666C18.6297 6.73008 18.5508 6.72843 18.4739 6.74181C18.397 6.7552 18.3237 6.78334 18.2583 6.82458C18.1929 6.86581 18.1368 6.91929 18.0932 6.98185C18.0497 7.04441 18.0196 7.11477 18.0048 7.18875C17.7457 8.28611 17.2219 9.30909 16.476 10.1746C15.73 11.0402 14.7828 11.7239 13.7114 12.1702C13.5843 12.15 13.4548 12.1444 13.3276 12.132V7.31475C13.3244 7.26527 13.3142 7.21645 13.2973 7.16963C13.2938 7.14535 13.2887 7.1213 13.2821 7.09762C13.2551 7.03824 13.2176 6.98381 13.1713 6.93675C13.1654 6.93112 13.1631 6.92325 13.1584 6.91875C13.1167 6.8816 13.0695 6.85052 13.0184 6.8265C13.0021 6.8175 12.9893 6.804 12.9729 6.79725C12.9338 6.78543 12.8936 6.77751 12.8528 6.77362C12.8186 6.76328 12.7834 6.75612 12.7478 6.75225L11.9836 6.75H11.9813C11.8266 6.7497 11.6781 6.80868 11.5685 6.91396C11.4588 7.01924 11.3971 7.16219 11.3968 7.31138C11.3965 7.46056 11.4576 7.60375 11.5668 7.70945C11.676 7.81515 11.8242 7.8747 11.9789 7.875H12.1563V14.0175C12.1563 14.0254 12.1609 14.0321 12.1609 14.04V15.1627C9.67719 13.1325 8.02071 10.3186 7.48612 7.22137C7.45763 7.07565 7.37174 6.94623 7.24645 6.86024C7.12117 6.77425 6.96623 6.73837 6.81412 6.76012C6.66158 6.78491 6.5255 6.86709 6.4358 6.98861C6.3461 7.11013 6.31012 7.26103 6.33578 7.40812C6.99253 11.1804 9.17433 14.5474 12.4024 16.7704C12.4141 16.7782 12.4281 16.7749 12.4386 16.7816C12.5288 16.8413 12.635 16.8745 12.7443 16.8773C12.8301 16.8762 12.9147 16.8566 12.9916 16.8199L13.0103 16.8154C13.0219 16.8098 13.0289 16.7951 13.0406 16.7884C13.1288 16.738 13.2013 16.6658 13.2506 16.5791C13.2991 16.4987 13.3256 16.4078 13.3276 16.3148V13.2323C14.4405 13.3665 15.4678 13.8772 16.2268 14.6734L18.1483 16.695C18.2529 16.8048 18.3984 16.87 18.5529 16.8764C18.6294 16.8795 18.7057 16.8681 18.7776 16.8428C18.8495 16.8174 18.9156 16.7787 18.9719 16.7288C19.0283 16.6788 19.074 16.6187 19.1062 16.5517C19.1385 16.4848 19.1568 16.4124 19.16 16.3386C19.1633 16.2649 19.1514 16.1912 19.1252 16.1219C19.0989 16.0525 19.0587 15.9889 19.0069 15.9345L17.0854 13.9129ZM16.7331 0H9.57445C2.68295 0 0.897949 1.71788 0.897949 8.35538V15.2584C0.897949 21.9049 2.67945 23.625 9.56278 23.625H16.7214C23.6141 23.625 25.3979 21.9071 25.3979 15.2696V8.36662C25.3979 1.72013 23.6164 0 16.7331 0ZM24.2313 15.2696C24.2313 21.2839 22.9678 22.5 16.7203 22.5H9.56395C3.32462 22.5 2.06462 21.2816 2.06462 15.2572V8.3565C2.06462 2.34 3.32812 1.125 9.57561 1.125H16.7331C22.9701 1.125 24.2313 2.34337 24.2313 8.36775V15.2696Z" fill="#FFFAEE"/>
</svg>
