<svg width="26" height="21" viewBox="0 0 26 21" fill="none" xmlns="http://www.w3.org/2000/svg">
<path d="M16.6379 8.78125L12.0529 6.14125C11.7837 5.98627 11.4785 5.9048 11.1679 5.90503C10.8573 5.90526 10.5522 5.98717 10.2832 6.14255C10.0142 6.29793 9.79084 6.52132 9.63546 6.79029C9.48008 7.05927 9.39817 7.36437 9.39795 7.675V12.9525C9.3942 13.585 9.7317 14.17 10.2804 14.4825C10.5495 14.6397 10.8554 14.7227 11.167 14.7231C11.4786 14.7236 11.7847 14.6414 12.0542 14.485L16.6379 11.845C16.9072 11.6902 17.1309 11.4671 17.2865 11.1983C17.442 10.9295 17.5239 10.6243 17.5239 10.3138C17.5239 10.0032 17.442 9.69805 17.2865 9.42921C17.1309 9.16037 16.9072 8.9373 16.6379 8.7825V8.78125ZM16.0129 10.7588L11.4304 13.4C11.351 13.4466 11.2606 13.4712 11.1686 13.4712C11.0765 13.4712 10.9861 13.4466 10.9067 13.4C10.8272 13.355 10.7613 13.2895 10.7158 13.2104C10.6703 13.1312 10.6468 13.0413 10.6479 12.95V7.675C10.6471 7.58391 10.6706 7.49424 10.7161 7.41533C10.7616 7.33641 10.8274 7.27112 10.9067 7.22625C10.9854 7.17834 11.0758 7.153 11.1679 7.153C11.2601 7.153 11.3505 7.17834 11.4292 7.22625L16.0129 9.8675C16.092 9.91215 16.1578 9.97699 16.2035 10.0554C16.2493 10.1338 16.2734 10.223 16.2734 10.3138C16.2734 10.4045 16.2493 10.4937 16.2035 10.5721C16.1578 10.6505 16.092 10.7154 16.0129 10.76V10.7588ZM21.8979 0.3125H4.39795C3.40369 0.313493 2.45044 0.708899 1.7474 1.41195C1.04435 2.11499 0.648942 3.06824 0.647949 4.0625V16.5625C0.648942 17.5568 1.04435 18.51 1.7474 19.2131C2.45044 19.9161 3.40369 20.3115 4.39795 20.3125H21.8979C22.8922 20.3115 23.8455 19.9161 24.5485 19.2131C25.2515 18.51 25.647 17.5568 25.6479 16.5625V4.0625C25.647 3.06824 25.2515 2.11499 24.5485 1.41195C23.8455 0.708899 22.8922 0.313493 21.8979 0.3125ZM24.3979 16.5625C24.397 17.2252 24.1332 17.8605 23.6646 18.3292C23.196 18.7978 22.5607 19.0615 21.8979 19.0625H4.39795C3.73521 19.0615 3.0999 18.7978 2.63128 18.3292C2.16265 17.8605 1.89894 17.2252 1.89795 16.5625V4.0625C1.89894 3.39976 2.16265 2.76445 2.63128 2.29583C3.0999 1.8272 3.73521 1.56349 4.39795 1.5625H21.8979C22.5607 1.56349 23.196 1.8272 23.6646 2.29583C24.1332 2.76445 24.397 3.39976 24.3979 4.0625V16.5625Z" fill="#FFFFEE"/>
</svg>
